<?xml version="1.0" encoding="utf-8"?>
<!-- Svg Vector Icons : http://www.onlinewebfonts.com/icon -->
<!DOCTYPE svg PUBLIC "-//W3C//DTD SVG 1.1//EN" "http://www.w3.org/Graphics/SVG/1.1/DTD/svg11.dtd">
<svg version="1.1" xmlns="http://www.w3.org/2000/svg" xmlns:xlink="http://www.w3.org/1999/xlink" x="0px" y="0px" viewBox="0 0 1000 1000" enable-background="new 0 0 1000 1000" xml:space="preserve">
<metadata> Svg Vector Icons : http://www.onlinewebfonts.com/icon </metadata>
<g><g transform="translate(0.000000,511.000000) scale(0.100000,-0.100000)"><path d="M3635.8,4574.1c-875.8-82.4-1604-663.1-1895.3-1514l-49.8-143.7l-203.1-101.6c-300.9-149.5-751.2-253-1109.6-253c-80.5,0-139.9-9.6-166.7-28.8c-67.1-46-111.1-191.6-111.1-364.1c0-128.4,7.7-170.6,53.7-260.6c69-141.8,210.8-272.1,383.3-352.6c300.9-141.8,979.3-304.7,1360.6-327.7l203.1-13.4l86.2-99.7c130.3-151.4,184-239.6,184-300.9c0-95.8-76.7-210.8-237.6-360.3c-525.1-484.8-711-711-864.3-1042.5c-596-1287.8,264.5-2826.7,1927.9-3447.6c691.8-258.7,1400.9-358.4,2270.9-318.1c2025.7,90.1,3384.4,841.3,4043.6,2230.7c241.5,509.8,362.2,1050.2,385.2,1705.6c28.8,889.2-132.2,1809.1-337.3,1914.5c-78.6,40.3-210.8,38.3-327.7-5.7c-53.7-21.1-231.9-109.2-398.6-199.3c-611.3-331.5-1169-519.3-1837.9-620.9c-285.5-42.2-862.4-42.2-1069.3,0c-199.3,42.2-383.3,132.2-421.6,207c-28.7,51.7-26.8,63.2,9.6,145.7c23,49.8,90.1,168.6,151.4,264.5c136.1,208.9,191.6,320,258.7,507.9c199.3,551.9,178.2,1186.2-55.6,1680.7c-103.5,220.4-174.4,325.8-333.5,492.5c-216.6,226.1-473.3,381.4-804.9,490.6C4436.8,4554.9,3963.5,4604.7,3635.8,4574.1z M4275.8,4246.4c459.9-61.3,891.1-285.5,1126.8-586.4c239.6-308.5,345-628.6,345-1059.8c1.9-429.3-80.5-720.6-304.7-1086.6c-189.7-308.5-231.9-389-253-488.7c-67.1-300.9,184-550,659.3-651.6c159.1-34.5,254.9-40.2,574.9-40.2c450.4,0,762.7,40.2,1228.4,159.1c500.2,126.5,780,243.4,1537,636.3c226.1,116.9,210.8,122.6,270.2-99.7c130.3-481,172.5-1397.1,88.1-1945.1C9321.7-2401.6,8398-3425,6914.7-3831.3c-793.4-216.6-1847.4-285.5-2633.1-170.6c-1326.2,195.5-2424.3,950.5-2775,1908.7c-82.4,222.3-113.1,406.3-113.1,659.2c0,509.8,210.8,963.9,638.2,1370.2c580.7,550,626.7,611.3,642,858.5c9.6,149.5-40.2,262.6-207,459.9l-115,138l57.5,170.6c76.7,226.1,90.1,371.8,49.8,492.5c-17.2,53.7-109.2,199.3-214.6,343c-291.3,392.9-287.5,385.2-180.1,655.4c130.3,322,381.4,651.6,655.4,858.5C3126,4219.5,3641.5,4328.8,4275.8,4246.4z M1840.1,2441.1c49.8-76.7,147.6-214.6,216.6-310.5c120.7-164.8,126.5-176.3,116.9-258.7c-5.8-47.9-30.7-143.7-53.7-214.6l-44.1-130.3h-82.4c-345,0-1193.9,208.9-1410.5,348.8c-111.2,70.9-185.9,189.7-185.9,297.1v76.7l226.1,21.1c122.7,13.4,289.4,36.4,368,53.7c182.1,38.3,507.8,145.7,626.7,207c49.8,26.8,101.6,47.9,111.1,47.9C1740.4,2579.1,1788.4,2517.8,1840.1,2441.1z"/><path d="M3032.1,3261.3c-30.7-17.2-72.8-46-93.9-63.2c-97.7-88.2-149.5-306.6-109.2-456.1c90.1-337.3,461.9-394.8,619-97.7c61.3,113.1,61.3,335.4,0,448.4C3361.7,3255.6,3168.2,3334.1,3032.1,3261.3z"/></g></g>
</svg>